<?xml version="1.0" encoding="UTF-8"?><svg xmlns="http://www.w3.org/2000/svg" xmlns:xlink="http://www.w3.org/1999/xlink" contentScriptType="text/ecmascript" width="375" zoomAndPan="magnify" contentStyleType="text/css" viewBox="0 0 375 374.999991" height="374.999991" preserveAspectRatio="xMidYMid meet" version="1.0"><path fill="rgb(96.859741%, 37.249756%, 10.978699%)" d="M 0 187.5 C 0 83.964844 83.964844 0 187.5 0 C 291.035156 0 375 83.964844 375 187.5 C 375 291.035156 291.035156 375 187.5 375 C 83.964844 375 0 291.035156 0 187.5 Z M 0 187.5 " fill-opacity="1" fill-rule="nonzero"/><path fill="rgb(100%, 100%, 100%)" d="M 208.964844 147.292969 C 208.964844 122.507812 208.964844 97.71875 208.964844 72.929688 C 208.964844 69.90625 206.46875 67.335938 203.445312 67.335938 C 178.65625 67.335938 153.871094 67.335938 129.15625 67.335938 C 124.246094 67.335938 121.75 73.382812 125.226562 76.859375 C 134.976562 86.609375 144.726562 96.355469 154.550781 106.183594 C 138.226562 122.507812 121.976562 138.753906 105.652344 155.078125 C 95.527344 165.207031 111.320312 180.847656 121.449219 170.722656 C 137.695312 154.472656 154.019531 138.148438 170.269531 121.902344 C 180.019531 131.652344 189.84375 141.476562 199.59375 151.222656 C 201.480469 153.113281 203.671875 153.1875 205.488281 152.359375 C 207.375 151.679688 208.964844 150.015625 208.964844 147.292969 Z M 132.707031 286.199219 C 132.707031 291.339844 128.550781 295.496094 123.414062 295.496094 L 86.683594 295.496094 C 81.542969 295.496094 77.386719 291.339844 77.386719 286.199219 L 77.386719 223.019531 C 77.386719 217.882812 81.542969 213.722656 86.683594 213.722656 L 123.414062 213.722656 C 128.550781 213.722656 132.707031 217.882812 132.707031 223.019531 Z M 209.644531 286.199219 C 209.644531 291.339844 205.488281 295.496094 200.347656 295.496094 L 163.617188 295.496094 C 158.480469 295.496094 154.324219 291.339844 154.324219 286.199219 L 154.324219 177.144531 C 154.324219 172.007812 158.480469 167.851562 163.617188 167.851562 L 200.347656 167.851562 C 205.488281 167.851562 209.644531 172.007812 209.644531 177.144531 Z M 288.617188 286.199219 C 288.617188 291.339844 284.460938 295.496094 279.324219 295.496094 L 242.59375 295.496094 C 237.453125 295.496094 233.296875 291.339844 233.296875 286.199219 L 233.296875 131.195312 C 233.296875 126.058594 237.453125 121.902344 242.59375 121.902344 L 279.324219 121.902344 C 284.460938 121.902344 288.617188 126.058594 288.617188 131.195312 Z M 288.617188 286.199219 " fill-opacity="1" fill-rule="nonzero"/></svg>